<?xml version="1.0" encoding="UTF-8" standalone="no"?>
<!DOCTYPE svg PUBLIC "-//W3C//DTD SVG 1.1//EN" "http://www.w3.org/Graphics/SVG/1.1/DTD/svg11.dtd">
<svg xmlns="http://www.w3.org/2000/svg" version="1.1" viewBox="0.00 0.00 492.00 169.00">
<g stroke-width="2.00" fill="none" stroke-linecap="butt">
<path stroke="#dadada" vector-effect="non-scaling-stroke" d="
  M 446.26 58.88
  L 441.23 60.25"
/>
<path stroke="#f4bf80" vector-effect="non-scaling-stroke" d="
  M 441.23 60.25
  C 439.14 59.28 436.30 58.92 433.96 57.10
  Q 433.57 56.80 433.23 57.15
  L 430.27 60.27"
/>
<path stroke="#f1b780" vector-effect="non-scaling-stroke" d="
  M 430.27 60.27
  Q 421.17 65.53 414.14 58.81
  A 0.73 0.72 -49.6 0 0 413.07 58.90
  C 407.68 65.92 397.93 66.10 392.69 58.63"
/>
<path stroke="#f4bf80" vector-effect="non-scaling-stroke" d="
  M 392.69 58.63
  L 390.98 54.63
  Q 390.55 53.65 390.07 54.61
  C 388.14 58.44 384.87 60.89 380.70 62.33
  Q 380.06 62.55 380.06 63.22
  L 380.08 117.78"
/>
<path stroke="#dadada" vector-effect="non-scaling-stroke" d="
  M 380.08 117.78
  L 379.97 126.89
  A 1.21 1.20 -3.9 0 1 378.94 128.07
  Q 377.08 128.35 374.89 127.85"
/>
<path stroke="#dadada" vector-effect="non-scaling-stroke" d="
  M 454.71 72.22
  L 451.22 72.53
  Q 449.87 72.65 449.87 74.00
  L 449.87 76.25
  Q 449.87 77.62 451.23 77.43
  Q 455.01 76.92 455.94 79.66"
/>
<path stroke="#dadada" vector-effect="non-scaling-stroke" d="
  M 450.36 115.41
  Q 450.90 117.49 450.31 118.76
  A 1.09 1.09 0.0 0 0 451.17 120.31
  Q 455.54 120.84 459.51 117.81
  Q 461.28 116.45 462.30 113.69
  Q 463.37 110.79 463.42 107.76
  Q 463.69 91.49 462.89 75.23"
/>
<path stroke="#f98a14" vector-effect="non-scaling-stroke" d="
  M 392.69 58.63
  Q 390.64 57.67 390.81 62.00
  Q 391.55 80.93 391.61 98.02
  Q 391.63 102.54 391.27 106.87
  C 390.84 112.06 391.24 116.96 391.02 122.06
  Q 390.88 125.30 390.90 128.20"
/>
<path stroke="#fc7e13" vector-effect="non-scaling-stroke" d="
  M 390.90 128.20
  Q 391.10 133.64 395.25 134.61
  C 400.67 135.88 403.96 131.05 402.99 125.97"
/>
<path stroke="#f98a14" vector-effect="non-scaling-stroke" d="
  M 402.99 125.97
  L 403.27 124.60"
/>
<path stroke="#fc9a13" vector-effect="non-scaling-stroke" d="
  M 403.27 124.60
  Q 405.24 124.96 407.50 124.23
  Q 412.85 122.51 418.21 120.39"
/>
<path stroke="#fc7e13" vector-effect="non-scaling-stroke" d="
  M 418.21 120.39
  C 418.16 123.64 417.60 129.25 419.16 131.86
  C 421.85 136.35 428.99 135.41 429.85 130.27
  Q 430.75 124.84 430.13 110.08"
/>
<path stroke="#f98a14" vector-effect="non-scaling-stroke" d="
  M 430.13 110.08
  Q 429.95 90.71 430.02 69.91
  Q 430.02 68.99 430.52 65.14
  Q 430.84 62.63 430.27 60.27"
/>
<path stroke="#e2ad6d" vector-effect="non-scaling-stroke" d="
  M 441.23 60.25
  C 441.44 65.77 441.19 71.25 441.17 76.76
  Q 441.06 105.17 441.20 133.72
  Q 441.22 136.65 439.91 138.09
  Q 438.23 139.96 435.84 139.96
  Q 411.22 140.02 385.69 139.98
  Q 382.81 139.97 381.10 138.83
  A 2.76 2.75 -73.2 0 1 379.86 136.51
  L 380.08 117.78"
/>
<path stroke="#f97614" vector-effect="non-scaling-stroke" d="
  M 430.13 110.08
  Q 423.97 115.80 421.98 117.42
  Q 420.84 118.34 418.55 118.93"
/>
<path stroke="#f99213" vector-effect="non-scaling-stroke" d="
  M 418.55 118.93
  L 418.25 65.67
  A 1.16 1.16 0.0 0 0 417.05 64.51
  L 411.27 64.69
  Q 410.78 64.70 410.34 64.94
  Q 407.42 66.55 404.52 66.62
  A 1.48 1.48 0.0 0 0 403.07 68.11
  L 403.27 124.60"
/>
<path stroke="#f97614" vector-effect="non-scaling-stroke" d="
  M 402.99 125.97
  Q 402.63 125.55 402.24 125.60
  Q 396.45 126.24 390.90 128.20"
/>
<path stroke="#fc8513" vector-effect="non-scaling-stroke" d="
  M 418.55 118.93
  Q 418.23 119.76 418.21 120.39"
/>
<path stroke="#feb343" vector-effect="non-scaling-stroke" d="
  M 388.8257 74.2259
  A 3.29 3.29 0.0 0 0 385.5414 70.9302
  L 385.3814 70.9299
  A 3.29 3.29 0.0 0 0 382.0857 74.2141
  L 382.0343 103.6541
  A 3.29 3.29 0.0 0 0 385.3186 106.9498
  L 385.4786 106.9501
  A 3.29 3.29 0.0 0 0 388.7743 103.6659
  L 388.8257 74.2259"
/>
</g>
<path fill="#ececec" d="
  M 446.26 58.88
  L 441.23 60.25
  C 439.14 59.28 436.30 58.92 433.96 57.10
  Q 433.57 56.80 433.23 57.15
  L 430.27 60.27
  Q 421.17 65.53 414.14 58.81
  A 0.73 0.72 -49.6 0 0 413.07 58.90
  C 407.68 65.92 397.93 66.10 392.69 58.63
  L 390.98 54.63
  Q 390.55 53.65 390.07 54.61
  C 388.14 58.44 384.87 60.89 380.70 62.33
  Q 380.06 62.55 380.06 63.22
  L 380.08 117.78
  L 379.97 126.89
  A 1.21 1.20 -3.9 0 1 378.94 128.07
  Q 377.08 128.35 374.89 127.85
  L 374.94 63.77
  A 1.25 1.24 -82.0 0 0 374.05 62.57
  Q 362.23 59.06 362.20 47.82
  C 362.17 40.21 367.16 35.45 374.12 33.47
  A 1.57 1.57 0.0 0 0 375.21 31.57
  C 373.20 23.59 377.23 16.28 385.62 15.48
  Q 391.65 14.91 396.36 20.17
  A 1.12 1.11 33.2 0 0 398.25 19.78
  Q 401.30 10.58 411.14 9.16
  C 417.04 8.30 424.65 12.34 426.77 18.09
  Q 427.26 19.43 427.80 20.66
  A 2.46 2.46 0.0 0 0 429.98 22.14
  Q 438.99 22.45 441.14 31.53
  C 441.40 32.62 441.25 33.88 441.52 35.00
  A 0.83 0.82 85.2 0 0 442.27 35.64
  Q 448.48 36.01 451.81 41.20
  Q 453.98 44.59 453.71 48.58
  C 453.35 53.63 450.11 56.07 446.26 58.88
  Z"
/>
<path fill="#fc9213" d="
  M 392.69 58.63
  Q 390.64 57.67 390.81 62.00
  Q 391.55 80.93 391.61 98.02
  Q 391.63 102.54 391.27 106.87
  C 390.84 112.06 391.24 116.96 391.02 122.06
  Q 390.88 125.30 390.90 128.20
  Q 391.10 133.64 395.25 134.61
  C 400.67 135.88 403.96 131.05 402.99 125.97
  L 403.27 124.60
  Q 405.24 124.96 407.50 124.23
  Q 412.85 122.51 418.21 120.39
  C 418.16 123.64 417.60 129.25 419.16 131.86
  C 421.85 136.35 428.99 135.41 429.85 130.27
  Q 430.75 124.84 430.13 110.08
  Q 429.95 90.71 430.02 69.91
  Q 430.02 68.99 430.52 65.14
  Q 430.84 62.63 430.27 60.27
  L 433.23 57.15
  Q 433.57 56.80 433.96 57.10
  C 436.30 58.92 439.14 59.28 441.23 60.25
  C 441.44 65.77 441.19 71.25 441.17 76.76
  Q 441.06 105.17 441.20 133.72
  Q 441.22 136.65 439.91 138.09
  Q 438.23 139.96 435.84 139.96
  Q 411.22 140.02 385.69 139.98
  Q 382.81 139.97 381.10 138.83
  A 2.76 2.75 -73.2 0 1 379.86 136.51
  L 380.08 117.78
  L 380.06 63.22
  Q 380.06 62.55 380.70 62.33
  C 384.87 60.89 388.14 58.44 390.07 54.61
  Q 390.55 53.65 390.98 54.63
  L 392.69 58.63
  Z
  M 388.8257 74.2259
  A 3.29 3.29 0.0 0 0 385.5414 70.9302
  L 385.3814 70.9299
  A 3.29 3.29 0.0 0 0 382.0857 74.2141
  L 382.0343 103.6541
  A 3.29 3.29 0.0 0 0 385.3186 106.9498
  L 385.4786 106.9501
  A 3.29 3.29 0.0 0 0 388.7743 103.6659
  L 388.8257 74.2259
  Z"
/>
<path fill="#f68214" d="
  M 392.69 58.63
  C 397.93 66.10 407.68 65.92 413.07 58.90
  A 0.73 0.72 -49.6 0 1 414.14 58.81
  Q 421.17 65.53 430.27 60.27
  Q 430.84 62.63 430.52 65.14
  Q 430.02 68.99 430.02 69.91
  Q 429.95 90.71 430.13 110.08
  Q 423.97 115.80 421.98 117.42
  Q 420.84 118.34 418.55 118.93
  L 418.25 65.67
  A 1.16 1.16 0.0 0 0 417.05 64.51
  L 411.27 64.69
  Q 410.78 64.70 410.34 64.94
  Q 407.42 66.55 404.52 66.62
  A 1.48 1.48 0.0 0 0 403.07 68.11
  L 403.27 124.60
  L 402.99 125.97
  Q 402.63 125.55 402.24 125.60
  Q 396.45 126.24 390.90 128.20
  Q 390.88 125.30 391.02 122.06
  C 391.24 116.96 390.84 112.06 391.27 106.87
  Q 391.63 102.54 391.61 98.02
  Q 391.55 80.93 390.81 62.00
  Q 390.64 57.67 392.69 58.63
  Z"
/>
<path fill="#c7c7c7" d="
  M 446.26 58.88
  L 446.17 71.40
  A 0.58 0.58 0.0 0 0 446.73 71.99
  L 454.71 72.22
  L 451.22 72.53
  Q 449.87 72.65 449.87 74.00
  L 449.87 76.25
  Q 449.87 77.62 451.23 77.43
  Q 455.01 76.92 455.94 79.66
  L 446.88 79.46
  A 0.84 0.84 0.0 0 0 446.03 80.30
  L 446.05 114.37
  A 0.92 0.91 1.3 0 0 446.93 115.28
  L 450.36 115.41
  Q 450.90 117.49 450.31 118.76
  A 1.09 1.09 0.0 0 0 451.17 120.31
  Q 455.54 120.84 459.51 117.81
  Q 461.28 116.45 462.30 113.69
  Q 463.37 110.79 463.42 107.76
  Q 463.69 91.49 462.89 75.23
  Q 465.85 78.26 465.85 81.50
  Q 465.88 95.61 465.89 109.72
  Q 465.89 113.98 465.11 116.01
  C 462.03 124.00 453.72 122.79 447.00 122.64
  A 0.55 0.55 0.0 0 0 446.44 123.20
  L 446.49 137.55
  Q 446.49 137.98 446.89 138.13
  C 452.57 140.42 450.93 148.54 445.06 148.53
  Q 410.63 148.48 376.03 148.53
  C 374.45 148.53 372.89 147.74 371.91 146.51
  Q 369.11 142.99 372.31 139.26
  C 373.03 138.43 373.85 138.30 374.62 137.64
  Q 375.02 137.30 375.01 136.78
  L 374.89 127.85
  Q 377.08 128.35 378.94 128.07
  A 1.21 1.20 -3.9 0 0 379.97 126.89
  L 380.08 117.78
  L 379.86 136.51
  A 2.76 2.75 -73.2 0 0 381.10 138.83
  Q 382.81 139.97 385.69 139.98
  Q 411.22 140.02 435.84 139.96
  Q 438.23 139.96 439.91 138.09
  Q 441.22 136.65 441.20 133.72
  Q 441.06 105.17 441.17 76.76
  C 441.19 71.25 441.44 65.77 441.23 60.25
  L 446.26 58.88
  Z"
/>
<path fill="#fca112" d="
  M 418.55 118.93
  Q 418.23 119.76 418.21 120.39
  Q 412.85 122.51 407.50 124.23
  Q 405.24 124.96 403.27 124.60
  L 403.07 68.11
  A 1.48 1.48 0.0 0 1 404.52 66.62
  Q 407.42 66.55 410.34 64.94
  Q 410.78 64.70 411.27 64.69
  L 417.05 64.51
  A 1.16 1.16 0.0 0 1 418.25 65.67
  L 418.55 118.93
  Z"
/>
<ellipse fill="#f68214" cx="295.44" cy="74.32" rx="3.75" ry="3.53"/>
<rect fill="#ffd472" x="-3.37" y="-18.01" transform="translate(385.43,88.94) rotate(0.1)" width="6.74" height="36.02" rx="3.29"/>
<path fill="#ececec" d="
  M 454.71 72.22
  Q 459.48 72.12 462.89 75.23
  Q 463.69 91.49 463.42 107.76
  Q 463.37 110.79 462.30 113.69
  Q 461.28 116.45 459.51 117.81
  Q 455.54 120.84 451.17 120.31
  A 1.09 1.09 0.0 0 1 450.31 118.76
  Q 450.90 117.49 450.36 115.41
  C 453.76 115.71 458.49 115.91 458.51 112.06
  Q 458.59 97.91 458.53 82.52
  C 458.52 81.05 457.47 79.71 455.94 79.66
  Q 455.01 76.92 451.23 77.43
  Q 449.87 77.62 449.87 76.25
  L 449.87 74.00
  Q 449.87 72.65 451.22 72.53
  L 454.71 72.22
  Z"
/>
<path fill="#f68214" d="
  M 69.27 82.61
  C 65.71 78.88 60.23 78.05 55.56 80.10
  C 46.40 84.11 47.12 98.21 56.52 101.24
  Q 64.14 103.68 69.12 98.39
  Q 69.50 97.99 69.88 98.38
  L 73.01 101.54
  Q 73.44 101.98 72.99 102.40
  C 67.17 107.91 57.48 108.91 50.99 104.77
  Q 41.77 98.90 43.30 87.61
  C 45.14 73.93 63.84 69.01 73.13 78.76
  A 0.47 0.47 0.0 0 1 73.12 79.41
  L 69.89 82.62
  Q 69.57 82.93 69.27 82.61
  Z"
/>
<path fill="#f68214" d="
  M 159.23 90.89
  C 159.23 101.59 172.51 105.58 179.35 98.29
  Q 179.54 98.09 179.73 98.28
  L 183.26 101.79
  Q 183.42 101.96 183.26 102.12
  Q 178.23 107.16 171.46 107.23
  Q 158.06 107.38 154.03 96.09
  C 150.61 86.53 156.14 76.49 166.20 74.25
  Q 175.89 72.08 182.99 78.47
  A 0.72 0.72 0.0 0 1 183.02 79.52
  L 180.16 82.32
  Q 179.59 82.87 179.01 82.33
  Q 174.11 77.77 167.82 79.40
  Q 159.22 81.62 159.23 90.89
  Z"
/>
<path fill="#f68214" d="
  M 344.51 87.02
  C 347.26 84.77 347.42 80.31 343.54 79.21
  Q 337.43 77.49 333.50 81.84
  Q 333.05 82.35 332.48 81.97
  L 329.19 79.83
  A 0.67 0.66 -52.6 0 1 329.06 78.83
  C 333.42 74.01 340.85 72.29 347.30 74.78
  C 351.75 76.50 353.79 80.85 352.06 85.44
  C 350.82 88.74 344.96 91.96 344.88 94.91
  Q 344.85 96.00 343.77 96.00
  L 339.67 95.99
  Q 338.49 95.99 338.77 94.84
  C 339.56 91.60 341.88 89.16 344.51 87.02
  Z"
/>
<path fill="#f68214" d="
  M 93.18 104.45
  C 89.20 109.01 78.36 107.87 76.88 101.38
  C 75.66 96.07 79.57 92.74 84.52 92.37
  Q 87.96 92.12 91.74 92.28
  Q 94.43 92.39 93.16 90.02
  Q 92.92 89.57 92.67 89.10
  Q 91.40 86.73 88.71 86.58
  Q 83.44 86.27 80.30 88.54
  Q 79.77 88.92 79.45 88.36
  L 77.58 85.18
  A 0.61 0.60 60.4 0 1 77.81 84.34
  Q 85.01 80.31 92.53 82.29
  C 98.00 83.72 99.42 88.36 99.30 93.49
  Q 99.16 100.14 99.30 105.96
  Q 99.32 106.77 98.51 106.77
  L 94.50 106.77
  Q 93.49 106.76 93.72 105.78
  Q 93.86 105.21 93.75 104.61
  A 0.33 0.33 0.0 0 0 93.18 104.45
  Z
  M 82.51 98.65
  C 81.32 105.22 94.96 104.02 93.45 96.63
  Q 93.34 96.12 92.82 96.11
  C 90.38 96.07 83.13 95.22 82.51 98.65
  Z"
/>
<path fill="#f68214" d="
  M 112.71 84.76
  Q 115.74 81.74 120.73 81.64
  Q 121.06 81.63 121.06 81.96
  L 121.06 86.90
  Q 121.06 87.08 120.88 87.07
  C 114.21 86.70 112.33 90.62 112.58 96.53
  Q 112.81 101.89 112.59 106.41
  Q 112.57 106.78 112.20 106.78
  L 107.26 106.77
  Q 106.75 106.76 106.75 106.26
  L 106.75 82.57
  Q 106.75 81.88 107.44 81.88
  L 111.43 81.87
  Q 112.36 81.87 112.28 82.80
  L 112.14 84.49
  Q 112.06 85.41 112.71 84.76
  Z"
/>
<path fill="#f68214" d="
  M 129.85 97.16
  C 132.17 103.47 139.92 103.34 144.47 99.72
  Q 144.63 99.59 144.75 99.75
  L 147.34 102.91
  Q 147.51 103.12 147.32 103.32
  C 140.77 110.22 126.41 107.73 124.23 97.66
  Q 122.91 91.56 125.96 87.01
  C 129.17 82.20 135.64 80.53 140.85 82.26
  Q 149.45 85.12 149.28 95.70
  A 0.57 0.56 0.5 0 1 148.71 96.25
  L 130.48 96.26
  Q 129.51 96.26 129.85 97.16
  Z
  M 129.93 92.35
  L 143.41 92.35
  A 0.13 0.13 0.0 0 0 143.54 92.22
  L 143.54 92.15
  A 6.71 5.78 0.0 0 0 136.83 86.37
  L 136.51 86.37
  A 6.71 5.78 -0.0 0 0 129.80 92.15
  L 129.80 92.22
  A 0.13 0.13 0.0 0 0 129.93 92.35
  Z"
/>
<path fill="#f68214" d="
  M 193.48 96.25
  Q 190.78 96.25 192.32 98.47
  L 192.94 99.36
  A 6.32 6.32 0.0 0 0 197.14 101.99
  Q 202.95 102.91 206.22 99.75
  Q 206.43 99.55 206.62 99.77
  L 209.20 102.84
  Q 209.38 103.05 209.20 103.26
  C 204.72 108.72 194.46 108.14 189.57 103.62
  Q 186.86 101.10 186.08 97.49
  C 184.45 89.89 188.63 82.81 196.57 81.80
  C 205.49 80.65 211.74 86.62 211.04 95.71
  Q 210.99 96.26 210.45 96.26
  L 193.48 96.25
  Z
  M 191.77 92.34
  L 205.37 92.36
  A 0.12 0.12 0.0 0 0 205.49 92.24
  L 205.50 92.18
  A 6.75 5.82 0.1 0 0 198.76 86.35
  L 198.42 86.35
  A 6.75 5.82 0.1 0 0 191.66 92.16
  L 191.65 92.22
  A 0.12 0.12 0.0 0 0 191.77 92.34
  Z"
/>
<path fill="#f68214" d="
  M 222.82 84.76
  Q 225.96 81.64 230.75 81.66
  Q 231.04 81.66 231.05 81.95
  L 231.11 86.76
  Q 231.11 87.03 230.84 87.02
  C 225.03 86.76 222.47 89.86 222.61 95.46
  Q 222.75 101.49 222.63 106.38
  Q 222.62 106.77 222.23 106.77
  L 217.26 106.77
  A 0.51 0.51 0.0 0 1 216.75 106.26
  L 216.75 82.59
  Q 216.75 81.93 217.41 81.92
  L 221.47 81.89
  A 0.80 0.80 0.0 0 1 222.27 82.72
  L 222.19 84.49
  Q 222.15 85.42 222.82 84.76
  Z"
/>
<path fill="#f68214" d="
  M 267.26 97.03
  C 269.48 103.32 277.21 103.48 281.59 99.89
  Q 281.94 99.60 282.24 99.94
  L 284.74 102.80
  Q 284.99 103.09 284.73 103.37
  C 279.09 109.40 267.58 108.00 263.28 101.47
  Q 260.24 96.84 261.63 91.02
  C 263.33 83.93 270.06 80.56 276.95 81.93
  C 283.61 83.24 287.13 88.94 286.64 95.65
  Q 286.60 96.26 285.99 96.26
  L 267.81 96.26
  Q 266.99 96.26 267.26 97.03
  Z
  M 267.33 92.38
  L 280.85 92.34
  A 0.13 0.13 0.0 0 0 280.98 92.21
  L 280.98 92.13
  A 6.72 5.79 -0.2 0 0 274.24 86.36
  L 273.90 86.36
  A 6.72 5.79 -0.2 0 0 267.20 92.17
  L 267.20 92.25
  A 0.13 0.13 0.0 0 0 267.33 92.38
  Z"
/>
<path fill="#f68214" d="
  M 320.96 104.63
  C 320.00 105.10 319.21 105.99 318.21 106.34
  C 313.04 108.14 305.12 107.08 304.32 100.58
  C 303.63 94.88 308.32 92.39 313.25 92.32
  Q 316.49 92.27 319.63 92.25
  Q 322.02 92.23 320.83 90.16
  Q 320.54 89.65 320.17 89.00
  Q 318.92 86.83 316.43 86.60
  Q 311.48 86.13 307.77 88.56
  Q 307.22 88.93 306.92 88.34
  L 305.35 85.21
  Q 305.04 84.59 305.63 84.21
  C 311.05 80.72 322.64 79.96 325.78 86.85
  Q 326.98 89.49 326.93 92.96
  Q 326.81 99.84 326.89 105.94
  Q 326.90 106.76 326.08 106.76
  L 321.99 106.76
  Q 321.21 106.76 321.29 105.99
  L 321.40 104.93
  Q 321.45 104.38 320.96 104.63
  Z
  M 317.74 102.30
  Q 321.69 100.72 320.99 96.58
  Q 320.91 96.08 320.40 96.07
  Q 316.41 95.98 312.99 96.31
  C 310.04 96.60 308.79 100.24 311.28 101.94
  Q 314.01 103.80 317.74 102.30
  Z"
/>
<path fill="#f68214" d="
  M 246.70 99.77
  Q 247.01 99.80 247.13 99.52
  L 254.60 82.22
  Q 254.75 81.88 255.12 81.88
  L 260.10 81.92
  Q 260.33 81.92 260.24 82.14
  L 249.87 106.35
  A 0.70 0.69 -78.5 0 1 249.23 106.78
  L 244.24 106.78
  Q 243.62 106.78 243.38 106.21
  L 233.09 82.13
  A 0.18 0.18 0.0 0 1 233.25 81.88
  L 238.73 81.88
  A 0.43 0.42 78.4 0 1 239.12 82.14
  Q 242.85 91.08 246.40 99.57
  Q 246.48 99.76 246.70 99.77
  Z"
/>
<path fill="#f68214" d="
  M 285.90 110.64
  C 288.39 111.78 292.48 111.98 292.48 108.00
  Q 292.50 94.88 292.49 82.36
  A 0.48 0.47 90.0 0 1 292.96 81.88
  L 297.98 81.89
  Q 298.37 81.89 298.37 82.29
  Q 298.44 96.28 298.32 107.73
  C 298.24 115.86 290.70 117.67 284.32 114.99
  Q 284.12 114.90 284.20 114.70
  L 285.65 110.74
  Q 285.72 110.55 285.90 110.64
  Z"
/>
<circle fill="#f68214" cx="341.71" cy="103.53" r="3.68"/>
<path fill="#fc6913" d="
  M 430.13 110.08
  Q 430.75 124.84 429.85 130.27
  C 428.99 135.41 421.85 136.35 419.16 131.86
  C 417.60 129.25 418.16 123.64 418.21 120.39
  Q 418.23 119.76 418.55 118.93
  Q 420.84 118.34 421.98 117.42
  Q 423.97 115.80 430.13 110.08
  Z"
/>
<path fill="#fc6913" d="
  M 402.99 125.97
  C 403.96 131.05 400.67 135.88 395.25 134.61
  Q 391.10 133.64 390.90 128.20
  Q 396.45 126.24 402.24 125.60
  Q 402.63 125.55 402.99 125.97
  Z"
/>
</svg>
